<svg width="47" height="47" viewBox="0 0 47 47" fill="none" xmlns="http://www.w3.org/2000/svg">
<path fill-rule="evenodd" clip-rule="evenodd" d="M0.597931 23.5C0.597931 10.8452 10.856 0.587128 23.5108 0.587128C36.1656 0.587128 46.4237 10.8452 46.4237 23.5C46.4237 36.1548 36.1656 46.4129 23.5108 46.4129C10.856 46.4129 0.597931 36.1548 0.597931 23.5ZM23.5108 5.1697C18.6493 5.1697 13.9869 7.10093 10.5493 10.5385C7.11173 13.9761 5.18051 18.6385 5.18051 23.5C5.18051 28.3615 7.11173 33.0239 10.5493 36.4615C13.9869 39.8991 18.6493 41.8303 23.5108 41.8303C28.3723 41.8303 33.0347 39.8991 36.4723 36.4615C39.9099 33.0239 41.8411 28.3615 41.8411 23.5C41.8411 18.6385 39.9099 13.9761 36.4723 10.5385C33.0347 7.10093 28.3723 5.1697 23.5108 5.1697Z" fill="#1D4ED8"/>
<path fill-rule="evenodd" clip-rule="evenodd" d="M25.8021 12.0436C25.8021 11.4359 25.5607 10.8531 25.131 10.4234C24.7013 9.99369 24.1185 9.75229 23.5108 9.75229C22.9031 9.75229 22.3203 9.99369 21.8906 10.4234C21.4609 10.8531 21.2195 11.4359 21.2195 12.0436V21.2087H12.0544C11.4467 21.2087 10.8639 21.4501 10.4342 21.8798C10.0045 22.3095 9.76308 22.8923 9.76308 23.5C9.76308 24.1077 10.0045 24.6905 10.4342 25.1202C10.8639 25.5499 11.4467 25.7913 12.0544 25.7913H21.2195V34.9565C21.2195 35.5641 21.4609 36.1469 21.8906 36.5766C22.3203 37.0063 22.9031 37.2477 23.5108 37.2477C24.1185 37.2477 24.7013 37.0063 25.131 36.5766C25.5607 36.1469 25.8021 35.5641 25.8021 34.9565V25.7913H34.9672C35.5749 25.7913 36.1577 25.5499 36.5874 25.1202C37.0171 24.6905 37.2585 24.1077 37.2585 23.5C37.2585 22.8923 37.0171 22.3095 36.5874 21.8798C36.1577 21.4501 35.5749 21.2087 34.9672 21.2087H25.8021V12.0436Z" fill="#1D4ED8"/>
</svg>
