<svg width="48" height="48" viewBox="0 0 48 48" fill="none" xmlns="http://www.w3.org/2000/svg">
<path d="M24 5C24.7957 5 25.5587 5.31607 26.1213 5.87868C26.6839 6.44129 27 7.20435 27 8C27 8.79565 26.6839 9.55871 26.1213 10.1213C25.5587 10.6839 24.7957 11 24 11H14C13.7348 11 13.4804 11.1054 13.2929 11.2929C13.1054 11.4804 13 11.7348 13 12V36C13 36.2652 13.1054 36.5196 13.2929 36.7071C13.4804 36.8946 13.7348 37 14 37H23C23.7957 37 24.5587 37.3161 25.1213 37.8787C25.6839 38.4413 26 39.2043 26 40C26 40.7957 25.6839 41.5587 25.1213 42.1213C24.5587 42.6839 23.7957 43 23 43H14C12.1435 43 10.363 42.2625 9.05025 40.9497C7.7375 39.637 7 37.8565 7 36V12C7 10.1435 7.7375 8.36301 9.05025 7.05025C10.363 5.7375 12.1435 5 14 5H24ZM36.12 16.22L41.778 21.88C42.3398 22.4425 42.6554 23.205 42.6554 24C42.6554 24.795 42.3398 25.5575 41.778 26.12L36.122 31.78C35.5592 32.3428 34.7959 32.659 34 32.659C33.2041 32.659 32.4408 32.3428 31.878 31.78C31.3152 31.2172 30.999 30.4539 30.999 29.658C30.999 28.8621 31.3152 28.0988 31.878 27.536L32.414 27H24C23.2044 27 22.4413 26.6839 21.8787 26.1213C21.3161 25.5587 21 24.7956 21 24C21 23.2044 21.3161 22.4413 21.8787 21.8787C22.4413 21.3161 23.2044 21 24 21H32.414L31.878 20.464C31.5995 20.1853 31.3785 19.8545 31.2279 19.4905C31.0772 19.1265 30.9997 18.7363 30.9997 18.3423C30.9998 17.9483 31.0775 17.5582 31.2284 17.1942C31.3793 16.8302 31.6003 16.4995 31.879 16.221C32.1577 15.9425 32.4885 15.7215 32.8525 15.5709C33.2166 15.4202 33.6067 15.3427 34.0007 15.3427C34.3947 15.3428 34.7848 15.4205 35.1488 15.5714C35.5128 15.7223 35.8435 15.9433 36.122 16.222L36.12 16.22Z" fill="#1D4ED8"/>
</svg>
